<svg width="45" height="13" viewBox="0 0 45 13" fill="none" xmlns="http://www.w3.org/2000/svg">
<path d="M4.46094 9.57031L6.61719 0.625H9.08594L5.78906 12H4.125L4.46094 9.57031ZM2.61719 0.625L4.76562 9.57031L5.11719 12H3.44531L0.171875 0.625H2.61719ZM12.3594 3.54688V12H10.1641V3.54688H12.3594ZM10.0625 1.35938C10.0625 1.02083 10.1693 0.742188 10.3828 0.523438C10.6016 0.299479 10.8932 0.1875 11.2578 0.1875C11.6276 0.1875 11.9193 0.299479 12.1328 0.523438C12.3464 0.742188 12.4531 1.02083 12.4531 1.35938C12.4531 1.69271 12.3438 1.97135 12.125 2.19531C11.9115 2.41406 11.625 2.52344 11.2656 2.52344C10.8958 2.52344 10.6016 2.41406 10.3828 2.19531C10.1693 1.97135 10.0625 1.69271 10.0625 1.35938ZM18.1875 10.1328V0H20.3828V12L18.3984 12.0078L18.1875 10.1328ZM13.8047 8.07031V7.50781C13.8047 6.82031 13.862 6.21875 13.9766 5.70312C14.0964 5.1875 14.2734 4.75781 14.5078 4.41406C14.7422 4.07031 15.0286 3.8151 15.3672 3.64844C15.7109 3.47656 16.1042 3.39062 16.5469 3.39062C16.9479 3.39062 17.2995 3.49219 17.6016 3.69531C17.9089 3.89323 18.1693 4.17188 18.3828 4.53125C18.5964 4.89062 18.7682 5.3151 18.8984 5.80469C19.0286 6.29427 19.1198 6.83073 19.1719 7.41406V8.22656C19.1094 8.77865 19.013 9.29427 18.8828 9.77344C18.7578 10.2526 18.5859 10.6693 18.3672 11.0234C18.1536 11.3776 17.8958 11.6562 17.5938 11.8594C17.2917 12.0573 16.9401 12.1562 16.5391 12.1562C16.0964 12.1562 15.7031 12.0677 15.3594 11.8906C15.0208 11.7135 14.7344 11.4531 14.5 11.1094C14.2708 10.7604 14.0964 10.3333 13.9766 9.82812C13.862 9.31771 13.8047 8.73177 13.8047 8.07031ZM15.9922 7.50781V8.07031C15.9922 8.46615 16.0104 8.80729 16.0469 9.09375C16.0885 9.375 16.1536 9.60677 16.2422 9.78906C16.3359 9.96615 16.4583 10.099 16.6094 10.1875C16.7604 10.2708 16.9479 10.3125 17.1719 10.3125C17.4635 10.3125 17.7005 10.2396 17.8828 10.0938C18.0651 9.94271 18.2005 9.73698 18.2891 9.47656C18.3828 9.21094 18.4349 8.90625 18.4453 8.5625V7.08594C18.4349 6.79948 18.401 6.54167 18.3438 6.3125C18.2865 6.08333 18.2057 5.88802 18.1016 5.72656C17.9974 5.5651 17.8672 5.4401 17.7109 5.35156C17.5599 5.26302 17.3828 5.21875 17.1797 5.21875C16.9609 5.21875 16.7734 5.26302 16.6172 5.35156C16.4661 5.4401 16.3464 5.57812 16.2578 5.76562C16.1693 5.94792 16.1016 6.1849 16.0547 6.47656C16.013 6.76302 15.9922 7.10677 15.9922 7.50781ZM23.8281 0.625L25.5625 5.75L27.2812 0.625H29.7734L26.7109 7.86719V12H24.4062V7.86719L21.3438 0.625H23.8281ZM29.9531 8.0625V7.49219C29.9531 6.83073 30.0312 6.24479 30.1875 5.73438C30.349 5.22396 30.5781 4.79688 30.875 4.45312C31.1719 4.10417 31.5286 3.84115 31.9453 3.66406C32.3672 3.48177 32.8385 3.39062 33.3594 3.39062C33.8854 3.39062 34.3568 3.48177 34.7734 3.66406C35.1953 3.84115 35.5547 4.10417 35.8516 4.45312C36.1536 4.79688 36.3854 5.22396 36.5469 5.73438C36.7083 6.24479 36.7891 6.83073 36.7891 7.49219V8.0625C36.7891 8.71875 36.7083 9.30208 36.5469 9.8125C36.3854 10.3229 36.1536 10.7526 35.8516 11.1016C35.5547 11.4505 35.1979 11.7135 34.7812 11.8906C34.3646 12.0677 33.8958 12.1562 33.375 12.1562C32.8542 12.1562 32.3828 12.0677 31.9609 11.8906C31.5443 11.7135 31.1849 11.4505 30.8828 11.1016C30.5807 10.7526 30.349 10.3229 30.1875 9.8125C30.0312 9.30208 29.9531 8.71875 29.9531 8.0625ZM32.1406 7.49219V8.0625C32.1406 8.45312 32.1667 8.79167 32.2188 9.07812C32.276 9.36458 32.3568 9.60156 32.4609 9.78906C32.5703 9.97656 32.7005 10.1146 32.8516 10.2031C33.0026 10.2917 33.1771 10.3359 33.375 10.3359C33.5729 10.3359 33.75 10.2917 33.9062 10.2031C34.0625 10.1146 34.1901 9.97656 34.2891 9.78906C34.3932 9.60156 34.4688 9.36458 34.5156 9.07812C34.5677 8.79167 34.5938 8.45312 34.5938 8.0625V7.49219C34.5938 7.11198 34.5651 6.77865 34.5078 6.49219C34.4505 6.20052 34.3698 5.96354 34.2656 5.78125C34.1615 5.59375 34.0312 5.45312 33.875 5.35938C33.724 5.26042 33.5521 5.21094 33.3594 5.21094C33.1667 5.21094 32.9948 5.26042 32.8438 5.35938C32.6979 5.45312 32.5703 5.59375 32.4609 5.78125C32.3568 5.96354 32.276 6.20052 32.2188 6.49219C32.1667 6.77865 32.1406 7.11198 32.1406 7.49219ZM42.2578 9.96875V3.54688H44.4531V12H42.3906L42.2578 9.96875ZM42.5078 8.22656L43.1172 8.21094C43.1172 8.77865 43.0625 9.30469 42.9531 9.78906C42.8438 10.2682 42.6797 10.6849 42.4609 11.0391C42.2422 11.3932 41.9688 11.6693 41.6406 11.8672C41.3125 12.0599 40.9245 12.1562 40.4766 12.1562C40.1328 12.1562 39.8151 12.099 39.5234 11.9844C39.237 11.8646 38.9896 11.6797 38.7812 11.4297C38.5729 11.1745 38.4089 10.849 38.2891 10.4531C38.1745 10.0521 38.1172 9.57031 38.1172 9.00781V3.54688H40.3125V9.03125C40.3125 9.26042 40.3333 9.45833 40.375 9.625C40.4167 9.78646 40.474 9.91927 40.5469 10.0234C40.6198 10.1276 40.7057 10.2031 40.8047 10.25C40.9036 10.2917 41.0156 10.3125 41.1406 10.3125C41.4844 10.3125 41.7552 10.224 41.9531 10.0469C42.1562 9.86458 42.2995 9.61719 42.3828 9.30469C42.4661 8.98698 42.5078 8.6276 42.5078 8.22656Z" fill="#FB538F"/>
</svg>
